<svg id="Layer_1" enable-background="new 0 0 256 256" height="512" viewBox="0 0 256 256" width="512" xmlns="http://www.w3.org/2000/svg"><g><path d="m234.502 230.256h-93.003c-3.256 0-5.92-2.664-5.92-5.92v-88.611c0-3.256 2.664-5.92 5.92-5.92h93.003c3.256 0 5.92 2.664 5.92 5.92v88.611c0 3.256-2.664 5.92-5.92 5.92z" fill="#63bce7"/><g><path d="m240.422 135.729c0-3.258-2.666-5.924-5.924-5.924h-92.996c-3.258 0-5.924 2.666-5.924 5.924v13.623h104.843v-13.623z" fill="#f8af23"/></g><path d="m114.502 230.256h-93.004c-3.256 0-5.92-2.664-5.92-5.92v-88.611c0-3.256 2.664-5.92 5.92-5.92h93.003c3.256 0 5.92 2.664 5.92 5.92v88.611c.001 3.256-2.663 5.92-5.919 5.92z" fill="#63bce7"/><g><path d="m33.637 224.336v-88.611c0-3.256 2.664-5.92 5.92-5.92h-18.059c-3.256 0-5.92 2.664-5.92 5.92v88.611c0 3.256 2.664 5.92 5.92 5.92h18.059c-3.256 0-5.92-2.664-5.92-5.92z" fill="#6377e7"/></g><g><path d="m222.363 224.336v-88.611c0-3.256-2.664-5.92-5.92-5.92h18.059c3.256 0 5.92 2.664 5.92 5.92v88.611c0 3.256-2.664 5.92-5.92 5.92h-18.059c3.256 0 5.92-2.664 5.92-5.92z" fill="#67dceb"/></g><g><path d="m120.422 135.729c0-3.258-2.666-5.924-5.924-5.924h-92.996c-3.258 0-5.924 2.666-5.924 5.924v13.623h104.843v-13.623z" fill="#f46275"/></g><g><path d="m39.561 129.806h-18.059c-3.258 0-5.924 2.666-5.924 5.924v13.623h18.059v-13.623c0-3.259 2.666-5.924 5.924-5.924z" fill="#f43075"/></g><g><path d="m216.439 129.806h18.059c3.258 0 5.924 2.666 5.924 5.924v13.623h-18.059v-13.623c0-3.259-2.666-5.924-5.924-5.924z" fill="#f8d323"/></g><g fill="#f8af23"><circle cx="27.883" cy="139.579" r="4.088"/><circle cx="40.411" cy="139.579" r="4.088"/><circle cx="52.94" cy="139.579" r="4.088"/></g><g fill="#f46275"><circle cx="147.883" cy="139.579" r="4.088"/><circle cx="160.411" cy="139.579" r="4.088"/><circle cx="172.94" cy="139.579" r="4.088"/></g><path d="m28.424 164.698h79.151v30.667h-79.151z" fill="#f46275"/><path d="m28.424 204.166h39.576v14.893h-39.576z" fill="#f8af23"/><g><path d="m145.441 164.698h37.617v54.361h-37.617z" fill="#f8af23"/><path d="m190.457 164.698h40.102v30.667h-40.102z" fill="#f46275"/></g><path d="m174.502 114.649h-93.004c-3.256 0-5.92-2.664-5.92-5.92v-88.611c0-3.256 2.664-5.92 5.92-5.92h93.003c3.256 0 5.92 2.664 5.92 5.92v88.611c.001 3.256-2.663 5.92-5.919 5.92z" fill="#63bce7"/><g><path d="m180.422 20.122c0-3.258-2.666-5.924-5.924-5.924h-92.996c-3.258 0-5.924 2.666-5.924 5.924v13.623h104.843v-13.623z" fill="#f8af23"/></g><g><path d="m162.363 108.729v-88.611c0-3.256-2.664-5.92-5.92-5.92h18.059c3.256 0 5.92 2.664 5.92 5.92v88.611c0 3.256-2.664 5.92-5.92 5.92h-18.059c3.256 0 5.92-2.664 5.92-5.92z" fill="#67dceb"/></g><g><path d="m93.637 108.729v-88.611c0-3.256 2.664-5.92 5.92-5.92h-18.059c-3.256 0-5.92 2.664-5.92 5.92v88.611c0 3.256 2.664 5.92 5.92 5.92h18.059c-3.256 0-5.92-2.664-5.92-5.92z" fill="#6377e7"/></g><g><path d="m156.439 14.198h18.059c3.258 0 5.924 2.666 5.924 5.924v13.623h-18.059v-13.623c0-3.258-2.666-5.924-5.924-5.924z" fill="#f8d323"/></g><g><path d="m99.561 14.198h-18.059c-3.258 0-5.924 2.666-5.924 5.924v13.623h18.059v-13.623c0-3.258 2.666-5.924 5.924-5.924z" fill="#f87023"/></g><g fill="#f46275"><circle cx="87.883" cy="23.971" r="4.088"/><circle cx="100.411" cy="23.971" r="4.088"/><circle cx="112.94" cy="23.971" r="4.088"/></g><g fill="#f8af23"><path d="m103.229 86.368-10.506-11.33c-.412-.444-.413-1.13-.003-1.576l10.509-11.434c.22-.239.53-.376.855-.376h8.99c1.012 0 1.54 1.203.855 1.948l-9.062 9.861c-.41.446-.408 1.132.003 1.576l9.039 9.75c.689.744.162 1.952-.852 1.952h-8.977c-.322.001-.631-.134-.851-.371z"/><path d="m138.194 50.695-11.147 47.538c-.124.524-.592.895-1.131.895h-6.98c-.75 0-1.303-.7-1.131-1.429l11.15-47.538c.124-.524.592-.895 1.131-.895h6.978c.749 0 1.303.699 1.13 1.429z"/><path d="m142.925 61.653h8.992c.325 0 .635.136.855.376l10.507 11.434c.41.446.408 1.132-.003 1.576l-10.504 11.33c-.22.237-.529.372-.852.372h-8.979c-1.014 0-1.542-1.208-.852-1.952l9.041-9.75c.412-.444.413-1.13.003-1.576l-9.064-9.861c-.684-.745-.155-1.949.856-1.949z"/></g><g><path d="m51.579 62.417 10.208 10.208c.868.868.868 2.275 0 3.143l-10.208 10.209c-1.4 1.4-3.794.409-3.794-1.572v-20.417c-.001-1.98 2.393-2.972 3.794-1.571z" fill="#f46275"/><g><path d="m204.421 62.417-10.208 10.208c-.868.868-.868 2.275 0 3.143l10.208 10.208c1.4 1.4 3.794.409 3.794-1.572v-20.416c.001-1.98-2.393-2.972-3.794-1.571z" fill="#f8af23"/><g fill="#3f3679"><path d="m27.883 145.167c3.081 0 5.587-2.506 5.587-5.587s-2.506-5.588-5.587-5.588-5.587 2.507-5.587 5.588 2.506 5.587 5.587 5.587zm0-8.176c1.427 0 2.587 1.161 2.587 2.588s-1.161 2.587-2.587 2.587-2.587-1.161-2.587-2.587 1.16-2.588 2.587-2.588z"/><path d="m40.411 145.167c3.081 0 5.587-2.506 5.587-5.587s-2.506-5.588-5.587-5.588-5.587 2.507-5.587 5.588 2.506 5.587 5.587 5.587zm0-8.176c1.427 0 2.587 1.161 2.587 2.588s-1.161 2.587-2.587 2.587-2.587-1.161-2.587-2.587 1.16-2.588 2.587-2.588z"/><path d="m52.94 145.167c3.081 0 5.587-2.506 5.587-5.587s-2.506-5.588-5.587-5.588-5.588 2.507-5.588 5.588 2.507 5.587 5.588 5.587zm0-8.176c1.427 0 2.587 1.161 2.587 2.588s-1.161 2.587-2.587 2.587-2.588-1.161-2.588-2.587 1.161-2.588 2.588-2.588z"/><path d="m48.131 157.895h3.332c.829 0 1.5-.671 1.5-1.5s-.671-1.5-1.5-1.5h-3.332c-.829 0-1.5.671-1.5 1.5s.671 1.5 1.5 1.5z"/><path d="m88.367 141.079h18.667c.829 0 1.5-.671 1.5-1.5s-.671-1.5-1.5-1.5h-18.667c-.829 0-1.5.671-1.5 1.5s.672 1.5 1.5 1.5z"/><path d="m147.883 145.167c3.081 0 5.588-2.506 5.588-5.587s-2.507-5.588-5.588-5.588-5.588 2.507-5.588 5.588 2.507 5.587 5.588 5.587zm0-8.176c1.427 0 2.588 1.161 2.588 2.588s-1.161 2.587-2.588 2.587-2.588-1.161-2.588-2.587 1.161-2.588 2.588-2.588z"/><path d="m160.411 145.167c3.081 0 5.588-2.506 5.588-5.587s-2.507-5.588-5.588-5.588-5.588 2.507-5.588 5.588 2.507 5.587 5.588 5.587zm0-8.176c1.427 0 2.588 1.161 2.588 2.588s-1.161 2.587-2.588 2.587-2.588-1.161-2.588-2.587 1.161-2.588 2.588-2.588z"/><path d="m172.939 145.167c3.081 0 5.588-2.506 5.588-5.587s-2.507-5.588-5.588-5.588-5.587 2.507-5.587 5.588 2.506 5.587 5.587 5.587zm0-8.176c1.427 0 2.588 1.161 2.588 2.588s-1.161 2.587-2.588 2.587-2.587-1.161-2.587-2.587 1.161-2.588 2.587-2.588z"/><path d="m168.131 157.895h3.332c.828 0 1.5-.671 1.5-1.5s-.672-1.5-1.5-1.5h-3.332c-.828 0-1.5.671-1.5 1.5s.672 1.5 1.5 1.5z"/><path d="m208.367 141.079h18.667c.828 0 1.5-.671 1.5-1.5s-.672-1.5-1.5-1.5h-18.667c-.828 0-1.5.671-1.5 1.5s.672 1.5 1.5 1.5z"/><path d="m27.7 240.302h-18.172c-.829 0-1.5.671-1.5 1.5s.671 1.5 1.5 1.5h18.172c.829 0 1.5-.671 1.5-1.5s-.671-1.5-1.5-1.5z"/><path d="m246.472 240.302h-18.172c-.828 0-1.5.671-1.5 1.5s.672 1.5 1.5 1.5h18.172c.828 0 1.5-.671 1.5-1.5s-.672-1.5-1.5-1.5z"/><path d="m213.788 240.302h-171.577c-.829 0-1.5.671-1.5 1.5s.671 1.5 1.5 1.5h171.577c.828 0 1.5-.671 1.5-1.5s-.672-1.5-1.5-1.5z"/><path d="m9.528 231.756h11.971 93.003 26.997 93.004 11.97c.828 0 1.5-.671 1.5-1.5s-.672-1.5-1.5-1.5h-6.024c.922-1.236 1.474-2.763 1.474-4.42v-74.984-13.623-.004c0-4.091-3.328-7.42-7.42-7.42h-.004-5.992v-43.523c0-6.664-5.421-12.085-12.085-12.085h-6.705v-8.708c0-1.511-.902-2.861-2.298-3.439s-2.989-.262-4.058.807l-10.208 10.208c-1.451 1.451-1.451 3.813 0 5.265l10.208 10.209c.714.713 1.662 1.092 2.629 1.092.48 0 .965-.094 1.429-.286 1.396-.578 2.298-1.928 2.298-3.439v-8.708h6.705c5.01 0 9.085 4.076 9.085 9.085v43.524h-84.004-.004c-4.092 0-7.42 3.329-7.42 7.42v.004 13.623 74.984c0 1.657.553 3.184 1.474 4.42h-15.105c.922-1.236 1.474-2.763 1.474-4.42v-74.984-13.623-.004c0-4.091-3.329-7.42-7.42-7.42h-.003-84.005v-43.525c0-5.009 4.075-9.085 9.084-9.085h6.706v8.708c0 1.511.902 2.861 2.298 3.439.463.192.948.286 1.429.286.967 0 1.915-.378 2.628-1.092l10.208-10.208c1.452-1.452 1.452-3.813 0-5.265l-10.208-10.209c-1.068-1.069-2.661-1.385-4.057-.807s-2.298 1.928-2.298 3.439v8.708h-6.706c-6.664 0-12.084 5.421-12.084 12.085v43.524h-5.992-.003c-4.091 0-7.42 3.329-7.42 7.42v.004 13.623 74.984c0 1.657.553 3.184 1.474 4.42h-6.025c-.829 0-1.5.671-1.5 1.5s.671 1.5 1.5 1.5zm197.188-147.351c0 .436-.312.612-.446.667-.135.056-.479.152-.788-.156l-10.208-10.208c-.281-.282-.281-.741 0-1.022l10.208-10.208c.31-.309.653-.212.788-.157.134.056.446.232.446.668zm-157.432-20.417c0-.436.312-.612.446-.668.061-.025.166-.059.292-.059.149 0 .328.048.496.216l10.208 10.208c.282.282.282.741 0 1.022l-10.208 10.209c-.308.309-.654.212-.788.157-.134-.056-.446-.232-.446-.667zm185.214 67.318c2.439 0 4.424 1.984 4.424 4.424v12.123h-101.844v-12.123c0-2.439 1.984-4.424 4.424-4.424zm-97.42 93.03v-66.441h25.623c.828 0 1.5-.671 1.5-1.5s-.672-1.5-1.5-1.5h-25.623v-4.042h101.844v73.484c0 2.438-1.982 4.42-4.42 4.42h-93.004c-2.437-.001-4.42-1.984-4.42-4.421zm-22.58-93.03c2.439 0 4.423 1.984 4.423 4.424v12.123h-101.842v-12.123c0-2.439 1.984-4.424 4.423-4.424zm-97.419 93.03v-66.441h25.622c.829 0 1.5-.671 1.5-1.5s-.671-1.5-1.5-1.5h-25.622v-4.042h101.843v73.484c0 2.438-1.983 4.42-4.42 4.42h-93.003c-2.437-.001-4.42-1.984-4.42-4.421z"/><path d="m107.576 163.198h-79.152c-.829 0-1.5.671-1.5 1.5v30.667c0 .829.671 1.5 1.5 1.5h79.151c.829 0 1.5-.671 1.5-1.5v-30.667c.001-.829-.671-1.5-1.499-1.5zm-1.5 30.666h-76.152v-27.667h76.151v27.667z"/><path d="m68 202.666h-39.576c-.829 0-1.5.671-1.5 1.5v14.893c0 .829.671 1.5 1.5 1.5h39.576c.829 0 1.5-.671 1.5-1.5v-14.893c0-.829-.671-1.5-1.5-1.5zm-1.5 14.893h-36.576v-11.893h36.576z"/><path d="m107.034 202.666h-30.534c-.829 0-1.5.671-1.5 1.5s.671 1.5 1.5 1.5h30.534c.829 0 1.5-.671 1.5-1.5s-.672-1.5-1.5-1.5z"/><path d="m107.034 210.112h-30.534c-.829 0-1.5.671-1.5 1.5s.671 1.5 1.5 1.5h30.534c.829 0 1.5-.671 1.5-1.5s-.672-1.5-1.5-1.5z"/><path d="m107.034 217.559h-30.534c-.829 0-1.5.671-1.5 1.5s.671 1.5 1.5 1.5h30.534c.829 0 1.5-.671 1.5-1.5s-.672-1.5-1.5-1.5z"/><path d="m183.059 163.198h-37.617c-.828 0-1.5.671-1.5 1.5v54.361c0 .829.672 1.5 1.5 1.5h37.617c.828 0 1.5-.671 1.5-1.5v-54.361c0-.829-.672-1.5-1.5-1.5zm-1.5 54.361h-34.617v-51.361h34.617z"/><path d="m230.559 163.198h-40.102c-.828 0-1.5.671-1.5 1.5v30.667c0 .829.672 1.5 1.5 1.5h40.102c.828 0 1.5-.671 1.5-1.5v-30.667c0-.829-.672-1.5-1.5-1.5zm-1.5 30.666h-37.102v-27.667h37.102z"/><path d="m230.559 200.333h-40.102c-.828 0-1.5.671-1.5 1.5s.672 1.5 1.5 1.5h40.102c.828 0 1.5-.671 1.5-1.5s-.672-1.5-1.5-1.5z"/><path d="m230.559 208.946h-40.102c-.828 0-1.5.671-1.5 1.5s.672 1.5 1.5 1.5h40.102c.828 0 1.5-.671 1.5-1.5s-.672-1.5-1.5-1.5z"/><path d="m230.559 217.559h-40.102c-.828 0-1.5.671-1.5 1.5s.672 1.5 1.5 1.5h40.102c.828 0 1.5-.671 1.5-1.5s-.672-1.5-1.5-1.5z"/><path d="m81.499 116.149h93.003c4.092 0 7.42-3.329 7.42-7.42v-74.984-13.623-.004c0-4.091-3.328-7.42-7.42-7.42h-.004-92.996-.003c-4.091 0-7.42 3.329-7.42 7.42v.004 13.623 74.984c0 4.091 3.328 7.42 7.42 7.42zm93.003-3h-93.003c-2.437 0-4.42-1.983-4.42-4.42v-66.442h25.622c.829 0 1.5-.671 1.5-1.5s-.671-1.5-1.5-1.5h-25.622v-4.042h101.843v73.484c0 2.437-1.983 4.42-4.42 4.42zm-.004-97.451c2.439 0 4.424 1.984 4.424 4.424v12.123h-101.843v-12.123c0-2.439 1.984-4.424 4.423-4.424z"/><path d="m87.883 29.559c3.081 0 5.587-2.506 5.587-5.587s-2.506-5.588-5.587-5.588-5.587 2.507-5.587 5.588 2.506 5.587 5.587 5.587zm0-8.175c1.427 0 2.587 1.161 2.587 2.588s-1.161 2.587-2.587 2.587-2.587-1.161-2.587-2.587 1.16-2.588 2.587-2.588z"/><path d="m100.411 29.559c3.081 0 5.587-2.506 5.587-5.587s-2.506-5.588-5.587-5.588-5.587 2.507-5.587 5.588 2.506 5.587 5.587 5.587zm0-8.175c1.427 0 2.587 1.161 2.587 2.588s-1.161 2.587-2.587 2.587-2.587-1.161-2.587-2.587 1.16-2.588 2.587-2.588z"/><path d="m112.94 29.559c3.081 0 5.587-2.506 5.587-5.587s-2.506-5.588-5.587-5.588-5.588 2.507-5.588 5.588 2.507 5.587 5.588 5.587zm0-8.175c1.427 0 2.587 1.161 2.587 2.588s-1.161 2.587-2.587 2.587-2.588-1.161-2.588-2.587 1.161-2.588 2.588-2.588z"/><path d="m108.131 42.287h3.332c.829 0 1.5-.671 1.5-1.5s-.671-1.5-1.5-1.5h-3.332c-.829 0-1.5.671-1.5 1.5s.671 1.5 1.5 1.5z"/><path d="m148.367 25.472h18.667c.828 0 1.5-.671 1.5-1.5s-.672-1.5-1.5-1.5h-18.667c-.828 0-1.5.671-1.5 1.5s.672 1.5 1.5 1.5z"/><path d="m115.512 61.745c-.425-.967-1.381-1.592-2.438-1.592h-8.99c-.742 0-1.457.313-1.96.86l-10.509 11.434c-.933 1.015-.929 2.601.008 3.611l10.506 11.329c.502.542 1.213.853 1.953.853h8.978c1.058 0 2.016-.627 2.439-1.597.424-.97.232-2.099-.487-2.875l-8.827-9.521 8.851-9.631c.713-.777.901-1.904.476-2.871zm-11.748 10.702c-.932 1.014-.929 2.6.008 3.611l8.512 9.182h-8.055l-10.194-10.992 10.198-11.094h8.072z"/><path d="m137.063 47.766h-6.978c-1.24 0-2.305.843-2.591 2.052l-11.149 47.535c-.188.796-.005 1.622.503 2.264s1.269 1.01 2.087 1.01h6.98c1.24 0 2.305-.843 2.591-2.052l11.147-47.538c.188-.795.005-1.62-.503-2.261-.506-.642-1.267-1.01-2.087-1.01zm-11.415 49.861h-6.285l10.991-46.861h6.283z"/><path d="m153.876 61.012c-.503-.545-1.217-.858-1.958-.858h-8.992c-1.056 0-2.013.625-2.438 1.591-.424.967-.237 2.094.478 2.872l8.853 9.631-8.828 9.52c-.72.776-.912 1.904-.489 2.875.424.971 1.382 1.598 2.44 1.598h8.979c.738 0 1.45-.311 1.951-.852l10.504-11.33c.938-1.01.941-2.597.009-3.611zm-2.104 24.228h-8.057l8.514-9.181c.938-1.011.941-2.598.009-3.612l-8.543-9.294h8.074l10.195 11.094z"/></g></g></g></g></svg>